M48
; DRILL file KiCad 10.0.4 date 2026-07-14T19:05:46
; FORMAT={-:-/ absolute / metric / decimal}
; #@! TF.CreationDate,2026-07-14T19:05:46+03:00
; #@! TF.GenerationSoftware,Kicad,Pcbnew,10.0.4
; #@! TF.FileFunction,MixedPlating,1,2
FMAT,2
METRIC
; #@! TA.AperFunction,Plated,PTH,ComponentDrill
T1C0.900
; #@! TA.AperFunction,Plated,PTH,ComponentDrill
T2C1.000
; #@! TA.AperFunction,Plated,PTH,ComponentDrill
T3C1.100
; #@! TA.AperFunction,Plated,PTH,ComponentDrill
T4C1.300
; #@! TA.AperFunction,Plated,PTH,ComponentDrill
T5C2.200
%
G90
G05
T1
X21.0Y70.392
X21.0Y67.09
X21.0Y55.392
X21.0Y52.09
X21.0Y40.392
X21.0Y37.09
X21.0Y25.392
X21.0Y22.09
X21.0Y10.392
X21.0Y7.09
X22.524Y71.916
X22.524Y68.868
X22.524Y56.916
X22.524Y53.868
X22.524Y41.916
X22.524Y38.868
X22.524Y26.916
X22.524Y23.868
X22.524Y11.916
X22.524Y8.868
X48.88Y37.805
X48.88Y35.265
X48.88Y32.725
X48.88Y30.185
X48.88Y27.645
X48.88Y25.105
X48.88Y22.565
X48.88Y20.025
X64.12Y37.805
X64.12Y35.265
X64.12Y32.725
X64.12Y30.185
X64.12Y27.645
X64.12Y25.105
X64.12Y22.565
X64.12Y20.025
T2
X32.0Y23.0
X39.6Y23.0
X46.0Y71.3
X46.0Y46.0
X48.54Y71.3
X48.54Y46.0
X51.08Y71.3
X51.08Y46.0
X53.62Y71.3
X53.62Y46.0
X56.16Y71.3
X56.16Y46.0
X58.7Y71.3
X58.7Y46.0
X61.24Y71.3
X61.24Y46.0
X63.78Y71.3
X63.78Y46.0
T3
X5.75Y71.75
X5.75Y67.25
X5.75Y56.75
X5.75Y52.25
X5.75Y41.75
X5.75Y37.25
X5.75Y26.75
X5.75Y22.25
X5.75Y11.75
X5.75Y7.25
X12.25Y71.75
X12.25Y67.25
X12.25Y56.75
X12.25Y52.25
X12.25Y41.75
X12.25Y37.25
X12.25Y26.75
X12.25Y22.25
X12.25Y11.75
X12.25Y7.25
T4
X32.0Y50.5
X37.0Y50.5
T5
X35.0Y72.0
X35.0Y7.0
M30
