M48
; DRILL file KiCad 10.0.4 date 2026-07-19T23:39:55
; FORMAT={-:-/ absolute / metric / decimal}
; #@! TF.CreationDate,2026-07-19T23:39:55+03:00
; #@! TF.GenerationSoftware,Kicad,Pcbnew,10.0.4
; #@! TF.FileFunction,MixedPlating,1,2
FMAT,2
METRIC
; #@! TA.AperFunction,Plated,PTH,ComponentDrill
T1C0.900
; #@! TA.AperFunction,Plated,PTH,ViaDrill
T2C0.950
; #@! TA.AperFunction,Plated,PTH,ComponentDrill
T3C0.950
; #@! TA.AperFunction,Plated,PTH,ComponentDrill
T4C1.000
; #@! TA.AperFunction,Plated,PTH,ComponentDrill
T5C1.100
; #@! TA.AperFunction,Plated,PTH,ComponentDrill
T6C1.300
; #@! TA.AperFunction,Plated,PTH,ComponentDrill
T7C2.200
%
G90
G05
T1
X7.9Y20.0
X7.9Y17.5
X7.9Y15.0
X40.9Y25.61
X40.9Y23.07
X40.9Y20.53
X40.9Y17.99
X40.9Y15.45
X40.9Y12.91
X40.9Y10.37
X40.9Y7.83
X56.14Y25.61
X56.14Y23.07
X56.14Y20.53
X56.14Y17.99
X56.14Y15.45
X56.14Y12.91
X56.14Y10.37
X56.14Y7.83
T2
X23.0Y47.5
X26.0Y30.0
X46.0Y9.0
X56.0Y47.5
T3
X7.9Y8.5
X10.4Y8.5
X12.9Y8.5
X15.4Y8.5
T4
X38.02Y59.105
X38.02Y33.805
X40.56Y59.105
X40.56Y33.805
X43.1Y59.105
X43.1Y33.805
X45.64Y59.105
X45.64Y33.805
X48.18Y59.105
X48.18Y33.805
X50.72Y59.105
X50.72Y33.805
X53.26Y59.105
X53.26Y33.805
X55.8Y59.105
X55.8Y33.805
T5
X28.25Y12.5
X28.25Y8.0
X34.75Y12.5
X34.75Y8.0
T6
X13.0Y35.5
X13.0Y30.5
X24.0Y60.5
X29.0Y60.5
T7
X22.0Y18.0
X43.0Y65.0
M30
