%TF.GenerationSoftware,KiCad,Pcbnew,10.0.4*%
%TF.CreationDate,2026-08-04T17:48:04+03:00*%
%TF.ProjectId,active_sender,61637469-7665-45f7-9365-6e6465722e6b,rev?*%
%TF.SameCoordinates,PX3750280PY791ddc0*%
%TF.FileFunction,Copper,L2,Bot*%
%TF.FilePolarity,Positive*%
%FSLAX46Y46*%
G04 Gerber Fmt 4.6, Leading zero omitted, Abs format (unit mm)*
G04 Created by KiCad (PCBNEW 10.0.4) date 2026-08-04 17:48:04*
%MOMM*%
%LPD*%
G01*
G04 APERTURE LIST*
%TA.AperFunction,ComponentPad*%
%ADD10C,3.800000*%
%TD*%
%TA.AperFunction,ComponentPad*%
%ADD11O,1.100000X1.700000*%
%TD*%
%TA.AperFunction,ComponentPad*%
%ADD12C,1.600000*%
%TD*%
%TA.AperFunction,ComponentPad*%
%ADD13C,0.900000*%
%TD*%
%TA.AperFunction,ViaPad*%
%ADD14C,1.400000*%
%TD*%
G04 APERTURE END LIST*
D10*
%TO.P,,1*%
%TO.N,N/C*%
X51250000Y64500000D03*
%TD*%
D11*
%TO.P,J2,SH,SHIELD_SH*%
%TO.N,unconnected-(J2-SHIELD-PadSH)*%
X26680000Y6400000D03*
%TO.N,unconnected-(J2-SHIELD-PadSH)_1*%
X26680000Y2600000D03*
%TO.N,unconnected-(J2-SHIELD-PadSH)_2*%
X35320000Y6400000D03*
%TO.N,unconnected-(J2-SHIELD-PadSH)_3*%
X35320000Y2600000D03*
%TD*%
D12*
%TO.P,BT1,*%
%TO.N,*%
X43240000Y14800000D03*
%TD*%
D13*
%TO.P,SW2,*%
%TO.N,*%
X45500000Y2250000D03*
X48500000Y2250000D03*
%TD*%
D10*
%TO.P,REF\u002A\u002A,1*%
%TO.N,N/C*%
X38750000Y37750000D03*
%TD*%
D14*
%TO.N,GNDD*%
X11000000Y59000000D03*
X18500000Y28500000D03*
X32500000Y12500000D03*
X53500000Y3500000D03*
X27000000Y42500000D03*
X9500000Y17000000D03*
X8000000Y45000000D03*
X36000000Y9000000D03*
X33500000Y66000000D03*
%TD*%
%TA.AperFunction,Conductor*%
%TO.N,GNDD*%
G36*
X52931634Y69499383D02*
G01*
X53315705Y69482614D01*
X53326437Y69481674D01*
X53704895Y69431850D01*
X53715533Y69429975D01*
X54088211Y69347353D01*
X54098652Y69344555D01*
X54462697Y69229773D01*
X54472843Y69226080D01*
X54825510Y69080000D01*
X54835302Y69075434D01*
X55173897Y68899173D01*
X55183237Y68893780D01*
X55484284Y68701992D01*
X55505168Y68688687D01*
X55514029Y68682483D01*
X55816862Y68450111D01*
X55825149Y68443157D01*
X56108559Y68183460D01*
X56112467Y68179719D01*
X60135035Y64157151D01*
X60135037Y64157148D01*
X60179707Y64112479D01*
X60183450Y64108570D01*
X60443169Y63825141D01*
X60450122Y63816854D01*
X60682483Y63514040D01*
X60688688Y63505179D01*
X60795827Y63337006D01*
X60893780Y63183252D01*
X60893782Y63183250D01*
X60899191Y63173881D01*
X61075439Y62835313D01*
X61080011Y62825509D01*
X61226084Y62472858D01*
X61229784Y62462692D01*
X61344562Y62098659D01*
X61347362Y62088210D01*
X61429978Y61715548D01*
X61431856Y61704894D01*
X61481674Y61326465D01*
X61482617Y61315689D01*
X61499381Y60931642D01*
X61499499Y60926236D01*
X61499499Y60892984D01*
X61499499Y60863045D01*
X61499499Y60863043D01*
X61499500Y60853051D01*
X61499500Y9073775D01*
X61499382Y9068366D01*
X61482614Y8684317D01*
X61481671Y8673541D01*
X61431850Y8295113D01*
X61429972Y8284459D01*
X61347353Y7911793D01*
X61344553Y7901345D01*
X61229775Y7537313D01*
X61226075Y7527147D01*
X61080002Y7174496D01*
X61075430Y7164692D01*
X60899180Y6826117D01*
X60893771Y6816749D01*
X60688686Y6494832D01*
X60682482Y6485971D01*
X60450110Y6183138D01*
X60443156Y6174851D01*
X60183455Y5891437D01*
X60179714Y5887529D01*
X56112477Y1820292D01*
X56108569Y1816550D01*
X55825140Y1556831D01*
X55816853Y1549878D01*
X55514039Y1317517D01*
X55505178Y1311312D01*
X55183249Y1106218D01*
X55173880Y1100809D01*
X54835312Y924561D01*
X54825508Y919989D01*
X54472857Y773916D01*
X54462691Y770216D01*
X54098658Y655438D01*
X54088209Y652638D01*
X53715547Y570022D01*
X53704893Y568144D01*
X53326464Y518326D01*
X53315688Y517383D01*
X52931641Y500619D01*
X52926235Y500501D01*
X52893506Y500501D01*
X52863045Y500501D01*
X52863041Y500501D01*
X52855437Y500500D01*
X52855436Y500501D01*
X52855435Y500500D01*
X20125071Y500500D01*
X20117584Y500726D01*
X19827525Y518272D01*
X19812660Y520077D01*
X19530522Y571781D01*
X19515984Y575365D01*
X19242145Y660696D01*
X19228147Y666005D01*
X18996600Y770216D01*
X18966589Y783723D01*
X18953332Y790681D01*
X18707861Y939072D01*
X18695537Y947578D01*
X18469746Y1124475D01*
X18458538Y1134405D01*
X18255724Y1337219D01*
X18245794Y1348427D01*
X18199374Y1407678D01*
X18068893Y1574224D01*
X18060391Y1586542D01*
X17912000Y1832013D01*
X17905042Y1845270D01*
X17896178Y1864965D01*
X17787320Y2106837D01*
X17782018Y2120818D01*
X17696683Y2394666D01*
X17693100Y2409203D01*
X17641396Y2691341D01*
X17639591Y2706206D01*
X17622946Y2981386D01*
X17622861Y2982787D01*
X25839500Y2982787D01*
X25839500Y2217214D01*
X25871797Y2054843D01*
X25871800Y2054834D01*
X25935154Y1901881D01*
X25935161Y1901868D01*
X26027140Y1764213D01*
X26027143Y1764209D01*
X26144208Y1647144D01*
X26144212Y1647141D01*
X26281867Y1555162D01*
X26281880Y1555155D01*
X26396594Y1507640D01*
X26434835Y1491800D01*
X26434837Y1491800D01*
X26434842Y1491798D01*
X26597213Y1459501D01*
X26597216Y1459500D01*
X26597218Y1459500D01*
X26762784Y1459500D01*
X26762785Y1459501D01*
X26816909Y1470267D01*
X26925157Y1491798D01*
X26925160Y1491800D01*
X26925165Y1491800D01*
X27065379Y1549878D01*
X27078119Y1555155D01*
X27078119Y1555156D01*
X27078126Y1555158D01*
X27215788Y1647141D01*
X27332859Y1764212D01*
X27424842Y1901874D01*
X27488200Y2054835D01*
X27501327Y2120826D01*
X27520499Y2217214D01*
X27520500Y2217216D01*
X27520500Y2982785D01*
X27520499Y2982787D01*
X34479500Y2982787D01*
X34479500Y2217214D01*
X34511797Y2054843D01*
X34511800Y2054834D01*
X34575154Y1901881D01*
X34575161Y1901868D01*
X34667140Y1764213D01*
X34667143Y1764209D01*
X34784208Y1647144D01*
X34784212Y1647141D01*
X34921867Y1555162D01*
X34921880Y1555155D01*
X35036594Y1507640D01*
X35074835Y1491800D01*
X35074837Y1491800D01*
X35074842Y1491798D01*
X35237213Y1459501D01*
X35237216Y1459500D01*
X35237218Y1459500D01*
X35402784Y1459500D01*
X35402785Y1459501D01*
X35456909Y1470267D01*
X35565157Y1491798D01*
X35565160Y1491800D01*
X35565165Y1491800D01*
X35705379Y1549878D01*
X35718119Y1555155D01*
X35718119Y1555156D01*
X35718126Y1555158D01*
X35855788Y1647141D01*
X35972859Y1764212D01*
X36064842Y1901874D01*
X36128200Y2054835D01*
X36141327Y2120826D01*
X36160499Y2217214D01*
X36160500Y2217216D01*
X36160500Y2343621D01*
X44549500Y2343621D01*
X44549500Y2156380D01*
X44586025Y1972757D01*
X44586027Y1972749D01*
X44657676Y1799772D01*
X44657681Y1799763D01*
X44761697Y1644093D01*
X44761700Y1644089D01*
X44894088Y1511701D01*
X44894092Y1511698D01*
X45049762Y1407682D01*
X45049768Y1407679D01*
X45049769Y1407678D01*
X45222749Y1336027D01*
X45347001Y1311312D01*
X45406379Y1299501D01*
X45406383Y1299500D01*
X45406384Y1299500D01*
X45593617Y1299500D01*
X45593618Y1299501D01*
X45777251Y1336027D01*
X45950231Y1407678D01*
X46105908Y1511698D01*
X46238302Y1644092D01*
X46342322Y1799769D01*
X46413973Y1972749D01*
X46450500Y2156384D01*
X46450500Y2343616D01*
X46450499Y2343621D01*
X47549500Y2343621D01*
X47549500Y2156380D01*
X47586025Y1972757D01*
X47586027Y1972749D01*
X47657676Y1799772D01*
X47657681Y1799763D01*
X47761697Y1644093D01*
X47761700Y1644089D01*
X47894088Y1511701D01*
X47894092Y1511698D01*
X48049762Y1407682D01*
X48049768Y1407679D01*
X48049769Y1407678D01*
X48222749Y1336027D01*
X48347001Y1311312D01*
X48406379Y1299501D01*
X48406383Y1299500D01*
X48406384Y1299500D01*
X48593617Y1299500D01*
X48593618Y1299501D01*
X48777251Y1336027D01*
X48950231Y1407678D01*
X49105908Y1511698D01*
X49238302Y1644092D01*
X49342322Y1799769D01*
X49413973Y1972749D01*
X49450500Y2156384D01*
X49450500Y2343616D01*
X49413973Y2527251D01*
X49358554Y2661044D01*
X49342323Y2700229D01*
X49342318Y2700238D01*
X49238302Y2855908D01*
X49238299Y2855912D01*
X49105911Y2988300D01*
X49105907Y2988303D01*
X48950237Y3092319D01*
X48950228Y3092324D01*
X48777251Y3163973D01*
X48777243Y3163975D01*
X48593620Y3200500D01*
X48593616Y3200500D01*
X48406384Y3200500D01*
X48406379Y3200500D01*
X48222756Y3163975D01*
X48222748Y3163973D01*
X48049771Y3092324D01*
X48049762Y3092319D01*
X47894092Y2988303D01*
X47894088Y2988300D01*
X47761700Y2855912D01*
X47761697Y2855908D01*
X47657681Y2700238D01*
X47657676Y2700229D01*
X47586027Y2527252D01*
X47586025Y2527244D01*
X47549500Y2343621D01*
X46450499Y2343621D01*
X46413973Y2527251D01*
X46358554Y2661044D01*
X46342323Y2700229D01*
X46342318Y2700238D01*
X46238302Y2855908D01*
X46238299Y2855912D01*
X46105911Y2988300D01*
X46105907Y2988303D01*
X45950237Y3092319D01*
X45950228Y3092324D01*
X45777251Y3163973D01*
X45777243Y3163975D01*
X45593620Y3200500D01*
X45593616Y3200500D01*
X45406384Y3200500D01*
X45406379Y3200500D01*
X45222756Y3163975D01*
X45222748Y3163973D01*
X45049771Y3092324D01*
X45049762Y3092319D01*
X44894092Y2988303D01*
X44894088Y2988300D01*
X44761700Y2855912D01*
X44761697Y2855908D01*
X44657681Y2700238D01*
X44657676Y2700229D01*
X44586027Y2527252D01*
X44586025Y2527244D01*
X44549500Y2343621D01*
X36160500Y2343621D01*
X36160500Y2982785D01*
X36160499Y2982787D01*
X36128202Y3145158D01*
X36128199Y3145167D01*
X36120409Y3163973D01*
X36105280Y3200500D01*
X36064845Y3298120D01*
X36064838Y3298133D01*
X35972859Y3435788D01*
X35972856Y3435792D01*
X35855791Y3552857D01*
X35855787Y3552860D01*
X35718132Y3644839D01*
X35718119Y3644846D01*
X35565166Y3708200D01*
X35565157Y3708203D01*
X35402785Y3740500D01*
X35402782Y3740500D01*
X35237218Y3740500D01*
X35237215Y3740500D01*
X35074842Y3708203D01*
X35074833Y3708200D01*
X34921880Y3644846D01*
X34921867Y3644839D01*
X34784212Y3552860D01*
X34784208Y3552857D01*
X34667143Y3435792D01*
X34667140Y3435788D01*
X34575161Y3298133D01*
X34575154Y3298120D01*
X34511800Y3145167D01*
X34511797Y3145158D01*
X34479500Y2982787D01*
X27520499Y2982787D01*
X27488202Y3145158D01*
X27488199Y3145167D01*
X27480409Y3163973D01*
X27465280Y3200500D01*
X27424845Y3298120D01*
X27424838Y3298133D01*
X27332859Y3435788D01*
X27332856Y3435792D01*
X27215791Y3552857D01*
X27215787Y3552860D01*
X27078132Y3644839D01*
X27078119Y3644846D01*
X26925166Y3708200D01*
X26925157Y3708203D01*
X26762785Y3740500D01*
X26762782Y3740500D01*
X26597218Y3740500D01*
X26597215Y3740500D01*
X26434842Y3708203D01*
X26434833Y3708200D01*
X26281880Y3644846D01*
X26281867Y3644839D01*
X26144212Y3552860D01*
X26144208Y3552857D01*
X26027143Y3435792D01*
X26027140Y3435788D01*
X25935161Y3298133D01*
X25935154Y3298120D01*
X25871800Y3145167D01*
X25871797Y3145158D01*
X25839500Y2982787D01*
X17622861Y2982787D01*
X17622046Y2996263D01*
X17621820Y3003751D01*
X17621820Y5171966D01*
X17594718Y5447141D01*
X17588109Y5514250D01*
X17521010Y5851578D01*
X17421170Y6180705D01*
X17289551Y6498462D01*
X17160575Y6739758D01*
X17137576Y6782787D01*
X25839500Y6782787D01*
X25839500Y6017214D01*
X25871797Y5854843D01*
X25871800Y5854834D01*
X25935154Y5701881D01*
X25935161Y5701868D01*
X26027140Y5564213D01*
X26027143Y5564209D01*
X26144208Y5447144D01*
X26144212Y5447141D01*
X26281867Y5355162D01*
X26281880Y5355155D01*
X26331882Y5334444D01*
X26434835Y5291800D01*
X26434837Y5291800D01*
X26434842Y5291798D01*
X26597213Y5259501D01*
X26597216Y5259500D01*
X26597218Y5259500D01*
X26762784Y5259500D01*
X26762785Y5259501D01*
X26816909Y5270267D01*
X26925157Y5291798D01*
X26925160Y5291800D01*
X26925165Y5291800D01*
X27078126Y5355158D01*
X27215788Y5447141D01*
X27332859Y5564212D01*
X27424842Y5701874D01*
X27488200Y5854835D01*
X27494704Y5887529D01*
X27520499Y6017214D01*
X27520500Y6017216D01*
X27520500Y6782785D01*
X27520499Y6782787D01*
X34479500Y6782787D01*
X34479500Y6017214D01*
X34511797Y5854843D01*
X34511800Y5854834D01*
X34575154Y5701881D01*
X34575161Y5701868D01*
X34667140Y5564213D01*
X34667143Y5564209D01*
X34784208Y5447144D01*
X34784212Y5447141D01*
X34921867Y5355162D01*
X34921880Y5355155D01*
X34971882Y5334444D01*
X35074835Y5291800D01*
X35074837Y5291800D01*
X35074842Y5291798D01*
X35237213Y5259501D01*
X35237216Y5259500D01*
X35237218Y5259500D01*
X35402784Y5259500D01*
X35402785Y5259501D01*
X35456909Y5270267D01*
X35565157Y5291798D01*
X35565160Y5291800D01*
X35565165Y5291800D01*
X35718126Y5355158D01*
X35855788Y5447141D01*
X35972859Y5564212D01*
X36064842Y5701874D01*
X36128200Y5854835D01*
X36134704Y5887529D01*
X36160499Y6017214D01*
X36160500Y6017216D01*
X36160500Y6782785D01*
X36160499Y6782787D01*
X36128202Y6945158D01*
X36128199Y6945167D01*
X36064845Y7098120D01*
X36064838Y7098133D01*
X35972859Y7235788D01*
X35972856Y7235792D01*
X35855791Y7352857D01*
X35855787Y7352860D01*
X35718132Y7444839D01*
X35718119Y7444846D01*
X35565166Y7508200D01*
X35565157Y7508203D01*
X35402785Y7540500D01*
X35402782Y7540500D01*
X35237218Y7540500D01*
X35237215Y7540500D01*
X35074842Y7508203D01*
X35074833Y7508200D01*
X34921880Y7444846D01*
X34921867Y7444839D01*
X34784212Y7352860D01*
X34784208Y7352857D01*
X34667143Y7235792D01*
X34667140Y7235788D01*
X34575161Y7098133D01*
X34575154Y7098120D01*
X34511800Y6945167D01*
X34511797Y6945158D01*
X34479500Y6782787D01*
X27520499Y6782787D01*
X27488202Y6945158D01*
X27488199Y6945167D01*
X27424845Y7098120D01*
X27424838Y7098133D01*
X27332859Y7235788D01*
X27332856Y7235792D01*
X27215791Y7352857D01*
X27215787Y7352860D01*
X27078132Y7444839D01*
X27078119Y7444846D01*
X26925166Y7508200D01*
X26925157Y7508203D01*
X26762785Y7540500D01*
X26762782Y7540500D01*
X26597218Y7540500D01*
X26597215Y7540500D01*
X26434842Y7508203D01*
X26434833Y7508200D01*
X26281880Y7444846D01*
X26281867Y7444839D01*
X26144212Y7352860D01*
X26144208Y7352857D01*
X26027143Y7235792D01*
X26027140Y7235788D01*
X25935161Y7098133D01*
X25935154Y7098120D01*
X25871800Y6945167D01*
X25871797Y6945158D01*
X25839500Y6782787D01*
X17137576Y6782787D01*
X17127426Y6801776D01*
X17127425Y6801778D01*
X17127420Y6801787D01*
X16936339Y7087760D01*
X16718147Y7353627D01*
X16718146Y7353628D01*
X16718142Y7353633D01*
X16474952Y7596823D01*
X16209085Y7815015D01*
X16209084Y7815016D01*
X16209080Y7815019D01*
X15923107Y8006100D01*
X15923102Y8006103D01*
X15923095Y8006107D01*
X15619789Y8168228D01*
X15619784Y8168230D01*
X15302026Y8299850D01*
X14972892Y8399692D01*
X14635568Y8466790D01*
X14635569Y8466790D01*
X14377776Y8492179D01*
X14293289Y8500500D01*
X14293286Y8500500D01*
X3003751Y8500500D01*
X2996264Y8500726D01*
X2706205Y8518272D01*
X2691340Y8520077D01*
X2409202Y8571781D01*
X2394664Y8575365D01*
X2120825Y8660696D01*
X2106827Y8666005D01*
X1954096Y8734744D01*
X1845269Y8783723D01*
X1832012Y8790681D01*
X1586541Y8939072D01*
X1574217Y8947578D01*
X1348426Y9124475D01*
X1337218Y9134405D01*
X1134404Y9337219D01*
X1124474Y9348427D01*
X947573Y9574224D01*
X939071Y9586542D01*
X790680Y9832013D01*
X783722Y9845270D01*
X666000Y10106837D01*
X660698Y10120818D01*
X575363Y10394666D01*
X571780Y10409203D01*
X520076Y10691341D01*
X518271Y10706206D01*
X500726Y10996264D01*
X500500Y11003751D01*
X500500Y14902352D01*
X41939500Y14902352D01*
X41939500Y14697649D01*
X41971522Y14495466D01*
X42034781Y14300777D01*
X42127715Y14118387D01*
X42248028Y13952787D01*
X42392786Y13808029D01*
X42547749Y13695444D01*
X42558390Y13687713D01*
X42674607Y13628497D01*
X42740776Y13594782D01*
X42740778Y13594782D01*
X42740781Y13594780D01*
X42845137Y13560873D01*
X42935465Y13531523D01*
X43036557Y13515512D01*
X43137648Y13499500D01*
X43137649Y13499500D01*
X43342351Y13499500D01*
X43342352Y13499500D01*
X43544534Y13531523D01*
X43739219Y13594780D01*
X43921610Y13687713D01*
X44014590Y13755268D01*
X44087213Y13808029D01*
X44087215Y13808032D01*
X44087219Y13808034D01*
X44231966Y13952781D01*
X44231968Y13952785D01*
X44231971Y13952787D01*
X44284732Y14025410D01*
X44352287Y14118390D01*
X44445220Y14300781D01*
X44508477Y14495466D01*
X44540500Y14697648D01*
X44540500Y14902352D01*
X44508477Y15104534D01*
X44445220Y15299219D01*
X44445218Y15299222D01*
X44445218Y15299224D01*
X44411503Y15365393D01*
X44352287Y15481610D01*
X44344556Y15492251D01*
X44231971Y15647214D01*
X44087213Y15791972D01*
X43921613Y15912285D01*
X43921612Y15912286D01*
X43921610Y15912287D01*
X43864653Y15941309D01*
X43739223Y16005219D01*
X43544534Y16068478D01*
X43369995Y16096122D01*
X43342352Y16100500D01*
X43137648Y16100500D01*
X43113329Y16096649D01*
X42935465Y16068478D01*
X42740776Y16005219D01*
X42558386Y15912285D01*
X42392786Y15791972D01*
X42248028Y15647214D01*
X42127715Y15481614D01*
X42034781Y15299224D01*
X41971522Y15104535D01*
X41939500Y14902352D01*
X500500Y14902352D01*
X500500Y37884814D01*
X36349500Y37884814D01*
X36349500Y37615187D01*
X36379686Y37347281D01*
X36379688Y37347269D01*
X36439684Y37084406D01*
X36439687Y37084398D01*
X36528734Y36829918D01*
X36645714Y36587006D01*
X36645716Y36587003D01*
X36789162Y36358711D01*
X36957266Y36147915D01*
X37147915Y35957266D01*
X37358711Y35789162D01*
X37587003Y35645716D01*
X37829921Y35528733D01*
X38021049Y35461855D01*
X38084397Y35439688D01*
X38084405Y35439685D01*
X38084408Y35439685D01*
X38084409Y35439684D01*
X38347268Y35379688D01*
X38615187Y35349501D01*
X38615188Y35349500D01*
X38615191Y35349500D01*
X38884812Y35349500D01*
X38884812Y35349501D01*
X39152732Y35379688D01*
X39415591Y35439684D01*
X39670079Y35528733D01*
X39912997Y35645716D01*
X40141289Y35789162D01*
X40352085Y35957266D01*
X40542734Y36147915D01*
X40710838Y36358711D01*
X40854284Y36587003D01*
X40971267Y36829921D01*
X41060316Y37084409D01*
X41120312Y37347268D01*
X41150500Y37615191D01*
X41150500Y37884809D01*
X41120312Y38152732D01*
X41060316Y38415591D01*
X40971267Y38670079D01*
X40854284Y38912997D01*
X40710838Y39141289D01*
X40542734Y39352085D01*
X40352085Y39542734D01*
X40141289Y39710838D01*
X39912997Y39854284D01*
X39912994Y39854286D01*
X39670082Y39971266D01*
X39415602Y40060313D01*
X39415594Y40060316D01*
X39218446Y40105313D01*
X39152732Y40120312D01*
X39152728Y40120313D01*
X39152719Y40120314D01*
X38884813Y40150500D01*
X38884809Y40150500D01*
X38615191Y40150500D01*
X38615186Y40150500D01*
X38347280Y40120314D01*
X38347268Y40120312D01*
X38084405Y40060316D01*
X38084397Y40060313D01*
X37829917Y39971266D01*
X37587005Y39854286D01*
X37358712Y39710839D01*
X37147915Y39542735D01*
X36957265Y39352085D01*
X36789161Y39141288D01*
X36645714Y38912995D01*
X36528734Y38670083D01*
X36439687Y38415603D01*
X36439684Y38415595D01*
X36379688Y38152732D01*
X36379686Y38152720D01*
X36349500Y37884814D01*
X500500Y37884814D01*
X500500Y60926231D01*
X500618Y60931640D01*
X503377Y60994824D01*
X517386Y61315706D01*
X518326Y61326438D01*
X568151Y61704900D01*
X570024Y61715530D01*
X652648Y62088218D01*
X655446Y62098656D01*
X655447Y62098659D01*
X770230Y62462705D01*
X773917Y62472837D01*
X920003Y62825520D01*
X924561Y62835294D01*
X1100832Y63173908D01*
X1106214Y63183229D01*
X1311319Y63505179D01*
X1317510Y63514022D01*
X1549896Y63816872D01*
X1556834Y63825141D01*
X1816565Y64108587D01*
X1820263Y64112450D01*
X1864966Y64157152D01*
X2342628Y64634814D01*
X48849500Y64634814D01*
X48849500Y64365187D01*
X48879686Y64097281D01*
X48879688Y64097269D01*
X48939684Y63834406D01*
X48939687Y63834398D01*
X49028734Y63579918D01*
X49145714Y63337006D01*
X49145716Y63337003D01*
X49289162Y63108711D01*
X49457266Y62897915D01*
X49647915Y62707266D01*
X49858711Y62539162D01*
X50087003Y62395716D01*
X50329921Y62278733D01*
X50521049Y62211855D01*
X50584397Y62189688D01*
X50584405Y62189685D01*
X50584408Y62189685D01*
X50584409Y62189684D01*
X50847268Y62129688D01*
X51115187Y62099501D01*
X51115188Y62099500D01*
X51115191Y62099500D01*
X51384812Y62099500D01*
X51384812Y62099501D01*
X51652732Y62129688D01*
X51915591Y62189684D01*
X52170079Y62278733D01*
X52412997Y62395716D01*
X52641289Y62539162D01*
X52852085Y62707266D01*
X53042734Y62897915D01*
X53210838Y63108711D01*
X53354284Y63337003D01*
X53471267Y63579921D01*
X53560316Y63834409D01*
X53620312Y64097268D01*
X53650500Y64365191D01*
X53650500Y64634809D01*
X53620312Y64902732D01*
X53560316Y65165591D01*
X53471267Y65420079D01*
X53354284Y65662997D01*
X53210838Y65891289D01*
X53042734Y66102085D01*
X52852085Y66292734D01*
X52641289Y66460838D01*
X52412997Y66604284D01*
X52412994Y66604286D01*
X52170082Y66721266D01*
X51915602Y66810313D01*
X51915594Y66810316D01*
X51718446Y66855313D01*
X51652732Y66870312D01*
X51652728Y66870313D01*
X51652719Y66870314D01*
X51384813Y66900500D01*
X51384809Y66900500D01*
X51115191Y66900500D01*
X51115186Y66900500D01*
X50847280Y66870314D01*
X50847268Y66870312D01*
X50584405Y66810316D01*
X50584397Y66810313D01*
X50329917Y66721266D01*
X50087005Y66604286D01*
X49858712Y66460839D01*
X49647915Y66292735D01*
X49457265Y66102085D01*
X49289161Y65891288D01*
X49145714Y65662995D01*
X49028734Y65420083D01*
X48939687Y65165603D01*
X48939684Y65165595D01*
X48879688Y64902732D01*
X48879686Y64902720D01*
X48849500Y64634814D01*
X2342628Y64634814D01*
X5842849Y68135036D01*
X5842852Y68135037D01*
X5887567Y68179754D01*
X5891404Y68183427D01*
X6174865Y68443176D01*
X6183139Y68450118D01*
X6485971Y68682493D01*
X6494810Y68688682D01*
X6816770Y68893796D01*
X6826100Y68899181D01*
X7164702Y69075448D01*
X7174476Y69080006D01*
X7527159Y69226092D01*
X7537291Y69229779D01*
X7901358Y69344568D01*
X7911772Y69347359D01*
X8284468Y69429982D01*
X8295091Y69431855D01*
X8673536Y69481676D01*
X8684309Y69482618D01*
X9068361Y69499383D01*
X9073764Y69499500D01*
X9136955Y69499499D01*
X9136959Y69499500D01*
X52863040Y69499500D01*
X52926226Y69499500D01*
X52931634Y69499383D01*
G37*
%TD.AperFunction*%
%TD*%
M02*
