M48
; DRILL file KiCad 10.0.4 date 2026-08-04T17:48:06
; FORMAT={-:-/ absolute / metric / decimal}
; #@! TF.CreationDate,2026-08-04T17:48:06+03:00
; #@! TF.GenerationSoftware,Kicad,Pcbnew,10.0.4
; #@! TF.FileFunction,MixedPlating,1,2
FMAT,2
METRIC
; #@! TA.AperFunction,Plated,PTH,ViaDrill
T1C0.550
; #@! TA.AperFunction,Plated,PTH,ComponentDrill
T2C0.600
; #@! TA.AperFunction,Plated,PTH,ComponentDrill
T3C0.900
; #@! TA.AperFunction,Plated,PTH,ComponentDrill
T4C1.600
; #@! TA.AperFunction,Plated,PTH,ComponentDrill
T5C2.200
%
G90
G05
T1
X8.0Y45.0
X9.5Y17.0
X11.0Y59.0
X18.5Y28.5
X27.0Y42.5
X32.5Y12.5
X33.5Y66.0
X36.0Y9.0
X53.5Y3.5
T3
X45.5Y2.25
X48.5Y2.25
T4
X43.24Y14.8
T5
X38.75Y37.75
X51.25Y64.5
T2
G00X26.68Y6.7
M15
G01X26.68Y6.1
M16
G05
G00X26.68Y2.9
M15
G01X26.68Y2.3
M16
G05
G00X35.32Y6.7
M15
G01X35.32Y6.1
M16
G05
G00X35.32Y2.9
M15
G01X35.32Y2.3
M16
G05
M30
