ISO-10303-21;
HEADER;
FILE_DESCRIPTION(('STEP AP203'),
    '1');
FILE_NAME('Фиксатор провода',
    '2026-07-02T08:01:36',
    ('rizz'),
    (''),
    'C3D Converter',
    'C3D Toolkit',
    '');
/**/
FILE_SCHEMA(('CONFIG_CONTROL_DESIGN'));
ENDSEC;

DATA;
#1=PRODUCT_DEFINITION('','UNSPECIFIED',#28,#31);
#2=SHAPE_DEFINITION_REPRESENTATION(#26,#3);
#3=SHAPE_REPRESENTATION('NONE',(#4),#8);
#4=AXIS2_PLACEMENT_3D('',#5,#6,#7);
#5=CARTESIAN_POINT('',(0.,0.,0.));
#6=DIRECTION('',(0.,0.,1.));
#7=DIRECTION('',(1.,0.,0.));
#8=(GEOMETRIC_REPRESENTATION_CONTEXT(3)GLOBAL_UNCERTAINTY_ASSIGNED_CONTEXT((#10))
GLOBAL_UNIT_ASSIGNED_CONTEXT((#9,#11,#12))REPRESENTATION_CONTEXT('NONE','NONE'));
#9=(LENGTH_UNIT()NAMED_UNIT(*)SI_UNIT(.MILLI.,.METRE.));
#10=UNCERTAINTY_MEASURE_WITH_UNIT(LENGTH_MEASURE(1.E-5),#9,'NONE','NONE');
#11=(NAMED_UNIT(*)PLANE_ANGLE_UNIT()SI_UNIT($,.RADIAN.));
#12=(NAMED_UNIT(*)SI_UNIT($,.STERADIAN.)SOLID_ANGLE_UNIT());
#13=MANIFOLD_SOLID_BREP('',#14);
#14=CLOSED_SHELL('',(#53,#54,#55,#56,#57,#58,#59,#60,#61,#62,#63,#64));
#15=COLOUR_RGB('',0.564705882352941,0.564705882352941,0.564705882352941);
#16=FILL_AREA_STYLE_COLOUR('',#15);
#17=FILL_AREA_STYLE($,(#16));
#18=SURFACE_STYLE_FILL_AREA(#17);
#19=SURFACE_SIDE_STYLE('',(#18));
#20=SURFACE_STYLE_USAGE(.BOTH.,#19);
#21=PRESENTATION_STYLE_ASSIGNMENT((#20));
#22=MECHANICAL_DESIGN_GEOMETRIC_PRESENTATION_REPRESENTATION('NONE',(#23),#8);
#23=STYLED_ITEM('',(#21),#13);
#24=ADVANCED_BREP_SHAPE_REPRESENTATION('NONE',(#13),#8);
#25=SHAPE_REPRESENTATION_RELATIONSHIP('','',#3,#24);
#26=PRODUCT_DEFINITION_SHAPE('NONE','NONE',#1);
#27=MECHANICAL_CONTEXT('NONE',#32,'mechanical');
#28=PRODUCT_DEFINITION_FORMATION_WITH_SPECIFIED_SOURCE('ANY','UNSPECIFIED',#29,.NOT_KNOWN.);
#29=PRODUCT('','\X2\04240438043A044104300442043E0440\X0\ \X2\043F0440043E0432043E04340430\X0\',
'NONE',(#27));
#30=PRODUCT_RELATED_PRODUCT_CATEGORY('detail','',(#29));
#31=DESIGN_CONTEXT('detailed design',#32,'design');
#32=APPLICATION_CONTEXT('configuration controlled 3d designs of mechanical parts and assemblies');
#33=APPLICATION_PROTOCOL_DEFINITION('international standard','config_control_design',
1994,#32);
#34=CC_DESIGN_DATE_AND_TIME_ASSIGNMENT(#35,#39,(#1));
#35=DATE_AND_TIME(#36,#37);
#36=CALENDAR_DATE(0,1,1);
#37=LOCAL_TIME(0,0,0.,#38);
#38=COORDINATED_UNIVERSAL_TIME_OFFSET(0,0,.AHEAD.);
#39=DATE_TIME_ROLE('creation_date');
#40=CC_DESIGN_APPROVAL(#41,(#1));
#41=APPROVAL(#42,'UNSPECIFIED');
#42=APPROVAL_STATUS('not_yet_approved');
#43=APPROVAL_DATE_TIME(#44,#41);
#44=DATE_AND_TIME(#45,#46);
#45=CALENDAR_DATE(0,1,1);
#46=LOCAL_TIME(0,0,0.,#47);
#47=COORDINATED_UNIVERSAL_TIME_OFFSET(0,0,.AHEAD.);
#48=PERSON('UNSPECIFIED','rizz','UNSPECIFIED',('UNSPECIFIED'),('UNSPECIFIED'),('UNSPECIFIED'));
#49=ORGANIZATION('UNSPECIFIED','UNSPECIFIED','UNSPECIFIED');
#50=PERSON_AND_ORGANIZATION(#48,#49);
#51=PERSON_AND_ORGANIZATION_ROLE('creator');
#52=CC_DESIGN_PERSON_AND_ORGANIZATION_ASSIGNMENT(#50,#51,(#28,#1));
#53=ADVANCED_FACE('',(#65,#67,#69),#71,.F.);
#54=ADVANCED_FACE('',(#76,#78,#80),#82,.T.);
#55=ADVANCED_FACE('',(#87,#89),#91,.F.);
#56=ADVANCED_FACE('',(#96,#98),#100,.F.);
#57=ADVANCED_FACE('',(#105),#107,.T.);
#58=ADVANCED_FACE('',(#112),#114,.T.);
#59=ADVANCED_FACE('',(#119),#121,.T.);
#60=ADVANCED_FACE('',(#126),#128,.T.);
#61=ADVANCED_FACE('',(#133),#135,.T.);
#62=ADVANCED_FACE('',(#140),#142,.T.);
#63=ADVANCED_FACE('',(#147),#149,.T.);
#64=ADVANCED_FACE('',(#154),#156,.T.);
#65=FACE_BOUND('',#66,.T.);
#66=EDGE_LOOP('',(#161,#162,#163,#164,#165,#166,#167,#168));
#67=FACE_BOUND('',#68,.T.);
#68=EDGE_LOOP('',(#169));
#69=FACE_BOUND('',#70,.T.);
#70=EDGE_LOOP('',(#170));
#71=PLANE('',#72);
#72=AXIS2_PLACEMENT_3D('',#73,#74,#75);
#73=CARTESIAN_POINT('',(0.,-3.5,-2.14313189850787E-16));
#74=DIRECTION('',(0.,1.,6.12323399573677E-17));
#75=DIRECTION('',(6.12323399573677E-17,6.12323399573677E-17,-1.));
#76=FACE_BOUND('',#77,.T.);
#77=EDGE_LOOP('',(#171,#172,#173,#174,#175,#176,#177,#178));
#78=FACE_BOUND('',#79,.T.);
#79=EDGE_LOOP('',(#179));
#80=FACE_BOUND('',#81,.T.);
#81=EDGE_LOOP('',(#180));
#82=PLANE('',#83);
#83=AXIS2_PLACEMENT_3D('',#84,#85,#86);
#84=CARTESIAN_POINT('',(0.,0.,0.));
#85=DIRECTION('',(0.,1.,6.12323399573677E-17));
#86=DIRECTION('',(6.12323399573677E-17,6.12323399573677E-17,-1.));
#87=FACE_OUTER_BOUND('',#88,.T.);
#88=EDGE_LOOP('',(#181));
#89=FACE_OUTER_BOUND('',#90,.T.);
#90=EDGE_LOOP('',(#182));
#91=CYLINDRICAL_SURFACE('',#92,2.25);
#92=AXIS2_PLACEMENT_3D('',#93,#94,#95);
#93=CARTESIAN_POINT('',(-2.47403529510891E-15,-3.5,-20.));
#94=DIRECTION('',(0.,1.,6.12323399573677E-17));
#95=DIRECTION('',(6.12323399573677E-17,6.12323399573677E-17,-1.));
#96=FACE_OUTER_BOUND('',#97,.T.);
#97=EDGE_LOOP('',(#183));
#98=FACE_OUTER_BOUND('',#99,.T.);
#99=EDGE_LOOP('',(#184));
#100=CYLINDRICAL_SURFACE('',#101,2.25);
#101=AXIS2_PLACEMENT_3D('',#102,#103,#104);
#102=CARTESIAN_POINT('',(2.47403529510891E-15,-3.5,20.));
#103=DIRECTION('',(0.,1.,6.12323399573677E-17));
#104=DIRECTION('',(6.12323399573677E-17,6.12323399573677E-17,-1.));
#105=FACE_BOUND('',#106,.T.);
#106=EDGE_LOOP('',(#185,#186,#187,#188));
#107=PLANE('',#108);
#108=AXIS2_PLACEMENT_3D('',#109,#110,#111);
#109=CARTESIAN_POINT('',(-5.00000000000001,-3.5,26.));
#110=DIRECTION('',(0.,0.,1.));
#111=DIRECTION('',(1.,0.,0.));
#112=FACE_BOUND('',#113,.T.);
#113=EDGE_LOOP('',(#189,#190,#191,#192));
#114=PLANE('',#115);
#115=AXIS2_PLACEMENT_3D('',#116,#117,#118);
#116=CARTESIAN_POINT('',(-5.,-3.5,-26.));
#117=DIRECTION('',(-1.,0.,-6.83214169000096E-17));
#118=DIRECTION('',(-6.83214169000096E-17,-6.83214169000096E-17,1.));
#119=FACE_BOUND('',#120,.T.);
#120=EDGE_LOOP('',(#193,#194,#195,#196));
#121=PLANE('',#122);
#122=AXIS2_PLACEMENT_3D('',#123,#124,#125);
#123=CARTESIAN_POINT('',(5.,-3.5,-26.));
#124=DIRECTION('',(0.,0.,-1.));
#125=DIRECTION('',(-1.,0.,0.));
#126=FACE_BOUND('',#127,.T.);
#127=EDGE_LOOP('',(#197,#198,#199,#200));
#128=PLANE('',#129);
#129=AXIS2_PLACEMENT_3D('',#130,#131,#132);
#130=CARTESIAN_POINT('',(4.99999999999999,-3.5,26.));
#131=DIRECTION('',(1.,0.,6.83214169000096E-17));
#132=DIRECTION('',(6.83214169000096E-17,6.83214169000096E-17,-1.));
#133=FACE_BOUND('',#134,.T.);
#134=EDGE_LOOP('',(#201,#202,#203,#204));
#135=CYLINDRICAL_SURFACE('',#136,3.);
#136=AXIS2_PLACEMENT_3D('',#137,#138,#139);
#137=CARTESIAN_POINT('',(1.99999999999999,-15.5,23.));
#138=DIRECTION('',(0.,-1.,0.));
#139=DIRECTION('',(1.,0.,0.));
#140=FACE_BOUND('',#141,.T.);
#141=EDGE_LOOP('',(#205,#206,#207,#208));
#142=CYLINDRICAL_SURFACE('',#143,3.);
#143=AXIS2_PLACEMENT_3D('',#144,#145,#146);
#144=CARTESIAN_POINT('',(-2.00000000000001,-15.5,23.));
#145=DIRECTION('',(6.45947941600091E-17,-1.,0.));
#146=DIRECTION('',(2.96059473233375E-16,0.,1.));
#147=FACE_BOUND('',#148,.T.);
#148=EDGE_LOOP('',(#209,#210,#211,#212));
#149=CYLINDRICAL_SURFACE('',#150,3.);
#150=AXIS2_PLACEMENT_3D('',#151,#152,#153);
#151=CARTESIAN_POINT('',(-2.,-15.5,-23.));
#152=DIRECTION('',(0.,-1.,0.));
#153=DIRECTION('',(-1.,0.,1.1842378929335E-15));
#154=FACE_BOUND('',#155,.T.);
#155=EDGE_LOOP('',(#213,#214,#215,#216));
#156=CYLINDRICAL_SURFACE('',#157,3.);
#157=AXIS2_PLACEMENT_3D('',#158,#159,#160);
#158=CARTESIAN_POINT('',(2.,-15.5,-23.));
#159=DIRECTION('',(0.,-1.,0.));
#160=DIRECTION('',(0.,0.,-1.));
#161=ORIENTED_EDGE('',*,*,#217,.F.);
#162=ORIENTED_EDGE('',*,*,#218,.F.);
#163=ORIENTED_EDGE('',*,*,#219,.F.);
#164=ORIENTED_EDGE('',*,*,#220,.F.);
#165=ORIENTED_EDGE('',*,*,#221,.F.);
#166=ORIENTED_EDGE('',*,*,#222,.F.);
#167=ORIENTED_EDGE('',*,*,#223,.F.);
#168=ORIENTED_EDGE('',*,*,#224,.F.);
#169=ORIENTED_EDGE('',*,*,#225,.T.);
#170=ORIENTED_EDGE('',*,*,#226,.T.);
#171=ORIENTED_EDGE('',*,*,#227,.F.);
#172=ORIENTED_EDGE('',*,*,#228,.T.);
#173=ORIENTED_EDGE('',*,*,#229,.F.);
#174=ORIENTED_EDGE('',*,*,#230,.T.);
#175=ORIENTED_EDGE('',*,*,#231,.F.);
#176=ORIENTED_EDGE('',*,*,#232,.T.);
#177=ORIENTED_EDGE('',*,*,#233,.F.);
#178=ORIENTED_EDGE('',*,*,#234,.T.);
#179=ORIENTED_EDGE('',*,*,#235,.T.);
#180=ORIENTED_EDGE('',*,*,#236,.T.);
#181=ORIENTED_EDGE('',*,*,#236,.F.);
#182=ORIENTED_EDGE('',*,*,#226,.F.);
#183=ORIENTED_EDGE('',*,*,#235,.F.);
#184=ORIENTED_EDGE('',*,*,#225,.F.);
#185=ORIENTED_EDGE('',*,*,#237,.F.);
#186=ORIENTED_EDGE('',*,*,#220,.T.);
#187=ORIENTED_EDGE('',*,*,#238,.T.);
#188=ORIENTED_EDGE('',*,*,#232,.F.);
#189=ORIENTED_EDGE('',*,*,#239,.F.);
#190=ORIENTED_EDGE('',*,*,#222,.T.);
#191=ORIENTED_EDGE('',*,*,#240,.T.);
#192=ORIENTED_EDGE('',*,*,#230,.F.);
#193=ORIENTED_EDGE('',*,*,#241,.F.);
#194=ORIENTED_EDGE('',*,*,#224,.T.);
#195=ORIENTED_EDGE('',*,*,#242,.T.);
#196=ORIENTED_EDGE('',*,*,#228,.F.);
#197=ORIENTED_EDGE('',*,*,#243,.T.);
#198=ORIENTED_EDGE('',*,*,#234,.F.);
#199=ORIENTED_EDGE('',*,*,#244,.F.);
#200=ORIENTED_EDGE('',*,*,#218,.T.);
#201=ORIENTED_EDGE('',*,*,#238,.F.);
#202=ORIENTED_EDGE('',*,*,#219,.T.);
#203=ORIENTED_EDGE('',*,*,#244,.T.);
#204=ORIENTED_EDGE('',*,*,#233,.T.);
#205=ORIENTED_EDGE('',*,*,#240,.F.);
#206=ORIENTED_EDGE('',*,*,#221,.T.);
#207=ORIENTED_EDGE('',*,*,#237,.T.);
#208=ORIENTED_EDGE('',*,*,#231,.T.);
#209=ORIENTED_EDGE('',*,*,#242,.F.);
#210=ORIENTED_EDGE('',*,*,#223,.T.);
#211=ORIENTED_EDGE('',*,*,#239,.T.);
#212=ORIENTED_EDGE('',*,*,#229,.T.);
#213=ORIENTED_EDGE('',*,*,#243,.F.);
#214=ORIENTED_EDGE('',*,*,#217,.T.);
#215=ORIENTED_EDGE('',*,*,#241,.T.);
#216=ORIENTED_EDGE('',*,*,#227,.T.);
#217=EDGE_CURVE('',#245,#246,#247,.F.);
#218=EDGE_CURVE('',#248,#245,#249,.T.);
#219=EDGE_CURVE('',#250,#248,#251,.F.);
#220=EDGE_CURVE('',#252,#250,#253,.T.);
#221=EDGE_CURVE('',#254,#252,#255,.F.);
#222=EDGE_CURVE('',#256,#254,#257,.T.);
#223=EDGE_CURVE('',#258,#256,#259,.F.);
#224=EDGE_CURVE('',#246,#258,#260,.T.);
#225=EDGE_CURVE('',#261,#261,#262,.T.);
#226=EDGE_CURVE('',#263,#263,#264,.T.);
#227=EDGE_CURVE('',#265,#266,#267,.F.);
#228=EDGE_CURVE('',#265,#268,#269,.T.);
#229=EDGE_CURVE('',#270,#268,#271,.F.);
#230=EDGE_CURVE('',#270,#272,#273,.T.);
#231=EDGE_CURVE('',#274,#272,#275,.F.);
#232=EDGE_CURVE('',#274,#276,#277,.T.);
#233=EDGE_CURVE('',#278,#276,#279,.F.);
#234=EDGE_CURVE('',#278,#266,#280,.T.);
#235=EDGE_CURVE('',#281,#281,#282,.F.);
#236=EDGE_CURVE('',#283,#283,#284,.F.);
#237=EDGE_CURVE('',#252,#274,#285,.T.);
#238=EDGE_CURVE('',#250,#276,#286,.T.);
#239=EDGE_CURVE('',#256,#270,#287,.T.);
#240=EDGE_CURVE('',#254,#272,#288,.T.);
#241=EDGE_CURVE('',#246,#265,#289,.T.);
#242=EDGE_CURVE('',#258,#268,#290,.T.);
#243=EDGE_CURVE('',#245,#266,#291,.T.);
#244=EDGE_CURVE('',#248,#278,#292,.T.);
#245=VERTEX_POINT('',#293);
#246=VERTEX_POINT('',#294);
#247=CIRCLE('',#295,3.);
#248=VERTEX_POINT('',#299);
#249=LINE('',#300,#301);
#250=VERTEX_POINT('',#303);
#251=CIRCLE('',#304,3.);
#252=VERTEX_POINT('',#308);
#253=LINE('',#309,#310);
#254=VERTEX_POINT('',#312);
#255=CIRCLE('',#313,3.);
#256=VERTEX_POINT('',#317);
#257=LINE('',#318,#319);
#258=VERTEX_POINT('',#321);
#259=CIRCLE('',#322,3.);
#260=LINE('',#326,#327);
#261=VERTEX_POINT('',#329);
#262=CIRCLE('',#330,2.25);
#263=VERTEX_POINT('',#334);
#264=CIRCLE('',#335,2.25);
#265=VERTEX_POINT('',#339);
#266=VERTEX_POINT('',#340);
#267=CIRCLE('',#341,3.);
#268=VERTEX_POINT('',#345);
#269=LINE('',#346,#347);
#270=VERTEX_POINT('',#349);
#271=CIRCLE('',#350,3.);
#272=VERTEX_POINT('',#354);
#273=LINE('',#355,#356);
#274=VERTEX_POINT('',#358);
#275=CIRCLE('',#359,3.);
#276=VERTEX_POINT('',#363);
#277=LINE('',#364,#365);
#278=VERTEX_POINT('',#367);
#279=CIRCLE('',#368,3.);
#280=LINE('',#372,#373);
#281=VERTEX_POINT('',#375);
#282=CIRCLE('',#376,2.25);
#283=VERTEX_POINT('',#380);
#284=CIRCLE('',#381,2.25);
#285=LINE('',#385,#386);
#286=LINE('',#388,#389);
#287=LINE('',#391,#392);
#288=LINE('',#394,#395);
#289=LINE('',#397,#398);
#290=LINE('',#400,#401);
#291=LINE('',#403,#404);
#292=LINE('',#406,#407);
#293=CARTESIAN_POINT('',(5.,-3.5,-23.));
#294=CARTESIAN_POINT('',(2.,-3.5,-26.));
#295=AXIS2_PLACEMENT_3D('',#296,#297,#298);
#296=CARTESIAN_POINT('',(2.,-3.5,-23.));
#297=DIRECTION('',(0.,-1.,-6.12323399573677E-17));
#298=DIRECTION('',(7.40148683083438E-17,6.12323399573676E-17,-1.));
#299=CARTESIAN_POINT('',(4.99999999999999,-3.5,23.));
#300=CARTESIAN_POINT('',(4.99999999999999,-3.5,23.));
#301=VECTOR('',#302,1.);
#302=DIRECTION('',(7.72329060608805E-17,7.72329060608805E-17,-1.));
#303=CARTESIAN_POINT('',(1.99999999999999,-3.5,26.));
#304=AXIS2_PLACEMENT_3D('',#305,#306,#307);
#305=CARTESIAN_POINT('',(1.99999999999999,-3.5,23.));
#306=DIRECTION('',(0.,-1.,-6.12323399573677E-17));
#307=DIRECTION('',(1.,0.,0.));
#308=CARTESIAN_POINT('',(-2.00000000000001,-3.5,26.));
#309=CARTESIAN_POINT('',(-2.,-3.5,26.));
#310=VECTOR('',#311,1.);
#311=DIRECTION('',(1.,0.,0.));
#312=CARTESIAN_POINT('',(-5.00000000000001,-3.5,23.));
#313=AXIS2_PLACEMENT_3D('',#314,#315,#316);
#314=CARTESIAN_POINT('',(-2.00000000000001,-3.5,23.));
#315=DIRECTION('',(0.,-1.,-6.12323399573677E-17));
#316=DIRECTION('',(-2.96059473233375E-16,-6.12323399573676E-17,1.));
#317=CARTESIAN_POINT('',(-5.,-3.5,-23.));
#318=CARTESIAN_POINT('',(-5.,-3.5,-23.));
#319=VECTOR('',#320,1.);
#320=DIRECTION('',(-7.72329060608805E-17,-7.72329060608805E-17,1.));
#321=CARTESIAN_POINT('',(-2.,-3.5,-26.));
#322=AXIS2_PLACEMENT_3D('',#323,#324,#325);
#323=CARTESIAN_POINT('',(-2.,-3.5,-23.));
#324=DIRECTION('',(0.,-1.,-6.12323399573677E-17));
#325=DIRECTION('',(-1.,0.,0.));
#326=CARTESIAN_POINT('',(2.,-3.5,-26.));
#327=VECTOR('',#328,1.);
#328=DIRECTION('',(-1.,0.,0.));
#329=CARTESIAN_POINT('',(2.88735358982114E-15,-3.5,17.75));
#330=AXIS2_PLACEMENT_3D('',#331,#332,#333);
#331=CARTESIAN_POINT('',(2.47403529510891E-15,-3.5,20.));
#332=DIRECTION('',(0.,1.,6.12323399573677E-17));
#333=DIRECTION('',(6.12323399573677E-17,6.12323399573677E-17,-1.));
#334=CARTESIAN_POINT('',(-2.06071700039668E-15,-3.5,-22.25));
#335=AXIS2_PLACEMENT_3D('',#336,#337,#338);
#336=CARTESIAN_POINT('',(-2.47403529510891E-15,-3.5,-20.));
#337=DIRECTION('',(0.,1.,6.12323399573677E-17));
#338=DIRECTION('',(6.12323399573677E-17,6.12323399573677E-17,-1.));
#339=CARTESIAN_POINT('',(2.,2.60309659226415E-15,-26.));
#340=CARTESIAN_POINT('',(5.,2.83792372554015E-15,-23.));
#341=AXIS2_PLACEMENT_3D('',#342,#343,#344);
#342=CARTESIAN_POINT('',(2.,1.40834381901946E-15,-23.));
#343=DIRECTION('',(0.,1.,6.12323399573677E-17));
#344=DIRECTION('',(1.,-1.45027314501002E-31,2.368475785867E-15));
#345=CARTESIAN_POINT('',(-2.,5.3068027963052E-16,-26.));
#346=CARTESIAN_POINT('',(2.,1.6841988391459E-15,-26.));
#347=VECTOR('',#348,1.);
#348=DIRECTION('',(-1.,0.,0.));
#349=CARTESIAN_POINT('',(-5.,6.1747767628984E-16,-23.));
#350=AXIS2_PLACEMENT_3D('',#351,#352,#353);
#351=CARTESIAN_POINT('',(-2.,1.40834381901946E-15,-23.));
#352=DIRECTION('',(0.,1.,6.12323399573677E-17));
#353=DIRECTION('',(0.,6.12323399573676E-17,-1.));
#354=CARTESIAN_POINT('',(-5.00000000000001,-1.80171556922334E-15,23.));
#355=CARTESIAN_POINT('',(-5.,1.59235032920985E-15,-23.));
#356=VECTOR('',#357,1.);
#357=DIRECTION('',(-7.72329060608805E-17,-6.9232623009124E-17,1.));
#358=CARTESIAN_POINT('',(-2.00000000000001,-1.27082896271396E-15,26.));
#359=AXIS2_PLACEMENT_3D('',#360,#361,#362);
#360=CARTESIAN_POINT('',(-2.00000000000001,-1.40834381901946E-15,23.));
#361=DIRECTION('',(0.,1.,6.12323399573677E-17));
#362=DIRECTION('',(-1.,0.,0.));
#363=CARTESIAN_POINT('',(1.99999999999999,-1.27082896271396E-15,26.));
#364=CARTESIAN_POINT('',(-2.00000000000001,-1.6841988391459E-15,26.));
#365=VECTOR('',#366,1.);
#366=DIRECTION('',(1.,0.,0.));
#367=CARTESIAN_POINT('',(4.99999999999999,-1.35762635937328E-15,23.));
#368=AXIS2_PLACEMENT_3D('',#369,#370,#371);
#369=CARTESIAN_POINT('',(1.99999999999999,-1.40834381901946E-15,23.));
#370=DIRECTION('',(0.,1.,6.12323399573677E-17));
#371=DIRECTION('',(-2.22044604925031E-16,-6.12323399573676E-17,1.));
#372=CARTESIAN_POINT('',(4.99999999999999,-1.59235032920985E-15,23.));
#373=VECTOR('',#374,1.);
#374=DIRECTION('',(7.72329060608805E-17,6.9232623009124E-17,-1.));
#375=CARTESIAN_POINT('',(2.88735358982114E-15,-1.08687403424328E-15,17.75));
#376=AXIS2_PLACEMENT_3D('',#377,#378,#379);
#377=CARTESIAN_POINT('',(2.47403529510891E-15,-1.22464679914735E-15,20.));
#378=DIRECTION('',(0.,1.,6.12323399573677E-17));
#379=DIRECTION('',(6.12323399573677E-17,6.12323399573677E-17,-1.));
#380=CARTESIAN_POINT('',(-2.06071700039668E-15,1.36241956405143E-15,-22.25));
#381=AXIS2_PLACEMENT_3D('',#382,#383,#384);
#382=CARTESIAN_POINT('',(-2.47403529510891E-15,1.22464679914735E-15,-20.));
#383=DIRECTION('',(0.,1.,6.12323399573677E-17));
#384=DIRECTION('',(6.12323399573677E-17,6.12323399573677E-17,-1.));
#385=CARTESIAN_POINT('',(-2.00000000000001,-3.5,26.));
#386=VECTOR('',#387,1.);
#387=DIRECTION('',(0.,1.,0.));
#388=CARTESIAN_POINT('',(1.99999999999999,-3.5,26.));
#389=VECTOR('',#390,1.);
#390=DIRECTION('',(0.,1.,0.));
#391=CARTESIAN_POINT('',(-5.,-3.5,-23.));
#392=VECTOR('',#393,1.);
#393=DIRECTION('',(0.,1.,0.));
#394=CARTESIAN_POINT('',(-5.00000000000001,-3.5,23.));
#395=VECTOR('',#396,1.);
#396=DIRECTION('',(0.,1.,0.));
#397=CARTESIAN_POINT('',(2.,-3.5,-26.));
#398=VECTOR('',#399,1.);
#399=DIRECTION('',(0.,1.,0.));
#400=CARTESIAN_POINT('',(-2.,-3.5,-26.));
#401=VECTOR('',#402,1.);
#402=DIRECTION('',(0.,1.,0.));
#403=CARTESIAN_POINT('',(5.,-3.5,-23.));
#404=VECTOR('',#405,1.);
#405=DIRECTION('',(0.,1.,0.));
#406=CARTESIAN_POINT('',(4.99999999999999,-3.5,23.));
#407=VECTOR('',#408,1.);
#408=DIRECTION('',(0.,1.,0.));
ENDSEC;
END-ISO-10303-21;
