M48
; DRILL file KiCad 10.0.4 date 2026-06-29T17:54:49
; FORMAT={-:-/ absolute / metric / decimal}
; #@! TF.CreationDate,2026-06-29T17:54:49+03:00
; #@! TF.GenerationSoftware,Kicad,Pcbnew,10.0.4
; #@! TF.FileFunction,MixedPlating,1,2
FMAT,2
METRIC
; #@! TA.AperFunction,Plated,PTH,ComponentDrill
T1C0.800
; #@! TA.AperFunction,Plated,PTH,ComponentDrill
T2C0.900
; #@! TA.AperFunction,Plated,PTH,ComponentDrill
T3C0.950
; #@! TA.AperFunction,Plated,PTH,ComponentDrill
T4C1.000
; #@! TA.AperFunction,Plated,PTH,ComponentDrill
T5C1.100
; #@! TA.AperFunction,Plated,PTH,ComponentDrill
T6C1.300
; #@! TA.AperFunction,Plated,PTH,ComponentDrill
T7C2.200
%
G90
G05
T1
X32.0Y52.0
X32.0Y48.5
T2
X14.75Y74.938
X14.75Y72.398
X14.75Y63.478
X14.75Y60.938
X29.0Y26.0
X29.0Y23.5
X29.0Y21.0
X43.75Y74.938
X43.75Y72.398
X43.75Y63.478
X43.75Y60.938
X62.0Y31.88
X62.0Y29.34
X62.0Y26.8
X62.0Y24.26
X62.0Y21.72
X62.0Y19.18
X62.0Y16.64
X62.0Y14.1
X77.24Y31.88
X77.24Y29.34
X77.24Y26.8
X77.24Y24.26
X77.24Y21.72
X77.24Y19.18
X77.24Y16.64
X77.24Y14.1
T3
X28.0Y14.0
X30.5Y14.0
X33.0Y14.0
X35.5Y14.0
T4
X5.5Y51.792
X10.5Y22.712
X15.5Y22.712
X20.5Y51.792
X59.07Y65.65
X59.07Y40.35
X61.61Y65.65
X61.61Y40.35
X64.15Y65.65
X64.15Y40.35
X66.69Y65.65
X66.69Y40.35
X69.23Y65.65
X69.23Y40.35
X71.77Y65.65
X71.77Y40.35
X74.31Y65.65
X74.31Y40.35
X76.85Y65.65
X76.85Y40.35
T5
X43.75Y12.0
X43.75Y7.5
X50.25Y12.0
X50.25Y7.5
T6
X14.0Y11.0
X19.0Y11.0
X33.0Y42.0
X33.0Y37.0
T7
X5.0Y75.0
X5.0Y5.0
X45.0Y46.0
X78.0Y75.0
X78.0Y5.0
M30
