M48
; DRILL file KiCad 10.0.4 date 2026-06-24T16:37:08
; FORMAT={-:-/ absolute / metric / decimal}
; #@! TF.CreationDate,2026-06-24T16:37:08+03:00
; #@! TF.GenerationSoftware,Kicad,Pcbnew,10.0.4
; #@! TF.FileFunction,MixedPlating,1,2
FMAT,2
METRIC
; #@! TA.AperFunction,Plated,PTH,ComponentDrill
T1C0.800
; #@! TA.AperFunction,Plated,PTH,ComponentDrill
T2C0.840
; #@! TA.AperFunction,Plated,PTH,ComponentDrill
T3C0.900
; #@! TA.AperFunction,Plated,PTH,ComponentDrill
T4C0.950
; #@! TA.AperFunction,Plated,PTH,ComponentDrill
T5C1.000
; #@! TA.AperFunction,Plated,PTH,ComponentDrill
T6C1.100
; #@! TA.AperFunction,Plated,PTH,ComponentDrill
T7C1.300
; #@! TA.AperFunction,Plated,PTH,ComponentDrill
T8C2.200
; #@! TA.AperFunction,NonPlated,NPTH,ComponentDrill
T9C1.200
%
G90
G05
T1
X32.0Y52.0
X32.0Y48.5
T2
X62.0Y31.88
X62.0Y29.34
X62.0Y26.8
X62.0Y24.26
X62.0Y21.72
X62.0Y19.18
X62.0Y16.64
X62.0Y14.1
X77.24Y31.88
X77.24Y29.34
X77.24Y26.8
X77.24Y24.26
X77.24Y21.72
X77.24Y19.18
X77.24Y16.64
X77.24Y14.1
T3
X14.75Y74.938
X14.75Y72.398
X14.75Y63.478
X14.75Y60.938
X43.75Y74.938
X43.75Y72.398
X43.75Y63.478
X43.75Y60.938
T4
X28.0Y10.0
X30.5Y10.0
X33.0Y10.0
X35.5Y10.0
T5
X5.5Y51.792
X10.5Y22.712
X15.5Y22.712
X20.5Y51.792
X59.07Y66.15
X59.07Y39.85
X61.61Y66.15
X61.61Y39.85
X64.15Y66.15
X64.15Y39.85
X66.69Y66.15
X66.69Y39.85
X69.23Y66.15
X69.23Y39.85
X71.77Y66.15
X71.77Y39.85
X74.31Y66.15
X74.31Y39.85
X76.85Y66.15
X76.85Y39.85
T6
X43.75Y12.0
X43.75Y7.5
X50.25Y12.0
X50.25Y7.5
T7
X14.0Y11.0
X19.0Y11.0
X33.0Y42.0
X33.0Y37.0
T8
X5.0Y75.0
X5.0Y8.0
X45.0Y46.0
X78.0Y75.0
X78.0Y8.0
T9
X26.4Y8.0
M30
